<svg width="19" height="19" viewBox="0 0 19 19" fill="none" xmlns="http://www.w3.org/2000/svg">
<path d="M18.6821 16.9114L14.9821 13.2114C15.9821 11.9114 16.6821 10.2114 16.6821 8.31142C16.6821 3.91142 13.0821 0.311417 8.68207 0.311417C4.28207 0.311417 0.682068 4.01142 0.682068 8.41142C0.682068 12.8114 4.28207 16.4114 8.68207 16.4114C10.4821 16.4114 12.1821 15.8114 13.5821 14.7114L17.2821 18.4114L18.6821 16.9114ZM8.68207 14.4114C5.38207 14.4114 2.68207 11.7114 2.68207 8.41142C2.68207 5.11142 5.38207 2.41142 8.68207 2.41142C11.9821 2.41142 14.6821 5.11142 14.6821 8.41142C14.6821 11.7114 11.9821 14.4114 8.68207 14.4114Z" fill="black"/>
</svg>
